<?xml version="1.0" encoding="UTF-8" standalone="no"?>
<svg
   xmlns:dc="http://purl.org/dc/elements/1.1/"
   xmlns:cc="http://creativecommons.org/ns#"
   xmlns:rdf="http://www.w3.org/1999/02/22-rdf-syntax-ns#"
   xmlns="http://www.w3.org/2000/svg"
   xmlns:sodipodi="http://sodipodi.sourceforge.net/DTD/sodipodi-0.dtd"
   xmlns:inkscape="http://www.inkscape.org/namespaces/inkscape"
   height="32px"
   style="enable-background:new 0 0 32 32;"
   version="1.1"
   viewBox="0 0 32 32"
   width="32px"
   xml:space="preserve"
   id="svg2"
   inkscape:version="0.91 r13725"
   sodipodi:docname="haven.svg"><metadata
     id="metadata12"><rdf:RDF><cc:Work
         rdf:about=""><dc:format>image/svg+xml</dc:format><dc:type
           rdf:resource="http://purl.org/dc/dcmitype/StillImage" /><dc:title /></cc:Work></rdf:RDF></metadata><defs
     id="defs10" /><sodipodi:namedview
     pagecolor="#ffffff"
     bordercolor="#666666"
     borderopacity="1"
     objecttolerance="10"
     gridtolerance="10"
     guidetolerance="10"
     inkscape:pageopacity="0"
     inkscape:pageshadow="2"
     inkscape:window-width="1366"
     inkscape:window-height="704"
     id="namedview8"
     showgrid="false"
     inkscape:zoom="7.375"
     inkscape:cx="12"
     inkscape:cy="17.603482"
     inkscape:window-x="0"
     inkscape:window-y="0"
     inkscape:window-maximized="1"
     inkscape:current-layer="svg2" /><path
     inkscape:connector-curvature="0"
     style="fill:#ffc107;fill-opacity:1;stroke:#2196f3;stroke-width:2.60812974;stroke-linecap:round;stroke-linejoin:round;stroke-opacity:1"
     d="m 15.932203,28.882382 c 0,0 11.085765,-4.908882 11.085765,-12.272208 l 0,-9.817767 L 15.932203,4.3379667 4.8464385,6.792407 l 0,9.817767 c 0,7.363326 11.0857645,12.272208 11.0857645,12.272208 z"
     id="path4"
     inkscape:export-xdpi="3394.1589"
     inkscape:export-ydpi="3394.1589" /><g
     id="Layer_1" /><g
     id="home"
     style="fill:#2196f3;fill-opacity:1;stroke:#2196f3;stroke-opacity:1"
     transform="matrix(0.64702263,0,0,0.61151546,5.807702,4.962474)"><path
       d="M 16,0 0,16 4,16 4,32 28,32 28,16 32,16 16,0 Z m 8,28 -6,0 0,-6 -4,0 0,6 L 8,28 8,13.656 16,8 24,13.656 24,28 Z"
       style="fill:#2196f3;fill-opacity:1;stroke:#2196f3;stroke-opacity:1"
       id="path6"
       inkscape:connector-curvature="0" /></g></svg>