<?xml version="1.0" encoding="UTF-8" standalone="no"?>
<svg
    xmlns="http://www.w3.org/2000/svg"
    height="32px"
    style="enable-background:new 0 0 32 32;"
    version="1.1"
    viewBox="0 0 32 32"
    width="32px"
    xml:space="preserve"
    id="svg2"><defs
     id="defs10" /><path style="fill:#ffc107;fill-opacity:1;stroke:#2196f3;stroke-width:2.60812974;stroke-linecap:round;stroke-linejoin:round;stroke-opacity:1"
    d="m 15.932203,28.882382 c 0,0 11.085765,-4.908882 11.085765,-12.272208 l 0,-9.817767 L 15.932203,4.3379667 4.8464385,6.792407 l 0,9.817767 c 0,7.363326 11.0857645,12.272208 11.0857645,12.272208 z"
    id="path4" /><g
    id="Layer_1" /><g
    id="home"
    style="fill:#2196f3;fill-opacity:1;stroke:#2196f3;stroke-opacity:1"
    transform="matrix(0.64702263,0,0,0.61151546,5.807702,4.962474)"><path
       d="M 16,0 0,16 4,16 4,32 28,32 28,16 32,16 16,0 Z m 8,28 -6,0 0,-6 -4,0 0,6 L 8,28 8,13.656 16,8 24,13.656 24,28 Z"
       style="fill:#2196f3;fill-opacity:1;stroke:#2196f3;stroke-opacity:1"
       id="path6"
       /></g></svg>
